<?xml version="1.0" standalone="no"?>
<!DOCTYPE svg PUBLIC "-//W3C//DTD SVG 20010904//EN"
 "http://www.w3.org/TR/2001/REC-SVG-20010904/DTD/svg10.dtd">
<svg version="1.0" xmlns="http://www.w3.org/2000/svg"
 width="300.000000pt" height="300.000000pt" viewBox="0 0 300.000000 300.000000"
 preserveAspectRatio="xMidYMid meet">
<metadata>
Created by potrace 1.10, written by Peter Selinger 2001-2011
</metadata>
<g transform="translate(0.000000,300.000000) scale(0.100000,-0.100000)"
fill="#000000" stroke="none">
<path d="M1300 2283 c0 -23 74 -73 107 -73 10 1 0 7 -21 15 -22 7 -49 24 -60
36 -20 21 -20 22 -1 13 21 -9 62 -8 163 2 61 6 62 6 62 -20 0 -23 -4 -25 -57
-29 l-58 -3 60 0 60 1 3 33 3 34 -68 -6 c-104 -10 -146 -10 -170 -1 -13 4 -23
3 -23 -2z"/>
<path d="M1506 2192 c-3 -3 -6 -18 -6 -33 0 -21 6 -28 25 -31 14 -3 25 -1 25
3 0 5 -9 9 -20 9 -14 0 -20 7 -20 21 0 17 5 20 25 17 13 -3 22 -2 20 2 -6 10
-43 19 -49 12z"/>
<path d="M1288 2103 c32 -30 62 -72 81 -113 17 -36 31 -59 31 -51 0 27 -52
117 -92 157 -28 29 -36 43 -26 47 7 3 0 6 -16 6 -28 1 -28 0 22 -46z"/>
<path d="M1355 2125 c67 -16 102 -19 70 -6 -11 5 -45 11 -75 14 l-55 6 60 -14z"/>
<path d="M1538 2081 c187 -57 272 -150 272 -300 l0 -56 -163 -29 c-145 -25
-247 -54 -247 -71 0 -3 9 -1 19 5 25 13 51 13 51 0 0 -5 -8 -10 -17 -10 -10 0
-42 -9 -70 -20 -29 -11 -53 -16 -53 -11 0 6 5 13 11 17 18 11 69 127 68 154
-1 19 -3 16 -10 -13 -11 -45 -33 -90 -66 -135 -14 -18 -22 -36 -19 -39 3 -3
32 3 63 15 139 50 250 52 339 7 l46 -23 26 56 c33 74 41 179 18 250 -21 63
-79 130 -142 164 -51 27 -174 68 -203 67 -9 0 26 -13 77 -28z m257 -410 c-9
-35 -33 -71 -48 -71 -6 0 -37 9 -67 21 -54 20 -160 31 -160 17 0 -5 -9 -8 -20
-8 -11 0 -20 5 -20 10 0 6 5 10 10 10 6 0 11 1 13 1 1 1 25 5 52 10 28 4 88
16 135 26 100 23 114 21 105 -16z"/>
<path d="M970 2052 c0 -5 13 -21 29 -36 30 -29 43 -31 149 -28 l63 2 -3 33
c-3 30 -6 32 -43 35 -22 2 -56 -4 -75 -13 -20 -9 -24 -13 -10 -9 14 3 46 9 73
11 45 5 47 4 47 -20 0 -23 -4 -25 -72 -30 -52 -3 -81 -1 -100 9 -41 21 -44 34
-6 28 31 -5 31 -4 -7 10 -47 18 -45 18 -45 8z"/>
<path d="M1164 1945 c-9 -23 3 -45 26 -45 16 0 20 7 20 30 0 23 -4 30 -20 30
-11 0 -23 -7 -26 -15z m36 -15 c0 -11 -7 -20 -15 -20 -8 0 -15 9 -15 20 0 11
7 20 15 20 8 0 15 -9 15 -20z"/>
<path d="M2290 1891 c-450 -329 -725 -494 -970 -584 -52 -20 -108 -41 -125
-47 l-30 -12 35 -18 c34 -18 34 -18 130 17 137 49 327 143 444 219 173 113
329 225 386 278 149 137 202 188 198 191 -2 2 -32 -18 -68 -44z m-85 -93 c-92
-86 -313 -248 -470 -346 -113 -70 -282 -151 -406 -195 -82 -29 -100 -32 -119
-22 -22 12 -21 13 26 30 333 123 464 197 909 514 77 55 142 100 145 100 2 1
-36 -36 -85 -81z"/>
<path d="M930 1915 c0 -2 21 -24 47 -47 58 -54 83 -111 94 -208 l8 -75 -3 75
c-3 86 -26 146 -77 204 l-33 38 54 -5 c51 -6 52 -6 15 4 -22 5 -50 7 -62 4
-13 -3 -23 -1 -23 5 0 5 -4 10 -10 10 -5 0 -10 -2 -10 -5z"/>
<path d="M1160 1865 c47 -15 88 -29 92 -33 13 -13 -19 -171 -44 -219 -14 -28
-42 -61 -69 -80 -24 -17 -61 -48 -82 -67 -39 -37 -73 -51 -45 -18 8 9 18 24
23 32 4 8 -4 2 -19 -15 -41 -49 -32 -55 42 -28 90 34 219 42 282 18 25 -9 51
-17 59 -18 19 -3 55 107 36 111 -6 2 -51 -9 -100 -23 -120 -34 -165 -32 -118
6 19 16 113 157 113 170 0 22 -18 5 -48 -46 -38 -64 -57 -72 -38 -17 8 21 16
64 19 95 8 73 12 79 42 65 23 -10 29 -26 26 -68 0 -8 6 -1 14 15 8 17 14 35
15 42 0 20 -165 85 -248 98 -20 3 1 -6 48 -20z m248 -375 c-3 -28 5 -27 -128
-11 -41 4 -64 9 -50 10 14 2 45 8 70 15 25 6 60 12 78 11 29 0 32 -3 30 -25z"/>
<path d="M751 1670 c-2 -262 263 -563 564 -641 87 -23 206 -33 265 -22 36 7
21 9 -70 9 -89 0 -133 5 -195 22 -241 69 -450 261 -530 489 -24 66 -35 174
-14 128 6 -15 7 -11 3 15 -14 75 -23 75 -23 0z"/>
<path d="M2159 1633 c-116 -275 -226 -401 -427 -489 -42 -19 -71 -34 -64 -34
7 0 41 13 76 29 184 83 303 211 393 423 47 110 57 118 50 43 -3 -36 -2 -52 3
-40 12 29 12 103 0 110 -6 4 -19 -15 -31 -42z"/>
<path d="M781 1623 c-2 -42 77 -177 161 -275 118 -138 358 -262 494 -256 l39
1 -35 4 c-70 8 -161 33 -226 63 -175 79 -343 253 -415 430 -10 25 -18 40 -18
33z"/>
<path d="M1935 1534 c-134 -102 -258 -177 -390 -239 -60 -28 -121 -57 -135
-63 l-25 -12 25 6 c14 3 84 34 155 69 125 59 272 151 400 248 33 25 61 44 64
42 9 -10 -49 -71 -117 -123 -192 -146 -371 -243 -462 -250 -30 -3 -58 -10 -62
-16 -5 -8 -11 -7 -20 2 -9 9 -9 12 2 12 7 0 11 2 8 5 -8 8 -39 -6 -33 -15 3
-5 -4 -6 -15 -3 -11 3 -20 1 -20 -5 0 -6 21 -14 46 -18 40 -6 59 -1 155 39
200 83 463 261 518 349 17 27 25 48 18 48 -7 0 -57 -34 -112 -76z"/>
<path d="M1507 1583 c-10 -9 -9 -143 1 -142 4 0 16 5 27 10 18 9 18 9 -3 5
-22 -4 -23 -2 -20 57 3 52 6 62 21 61 9 -1 17 2 17 7 0 10 -34 12 -43 2z"/>
<path d="M2148 1467 c-60 -157 -191 -303 -340 -376 -45 -23 -106 -48 -133 -56
-35 -11 -40 -13 -15 -10 59 9 141 45 227 102 87 57 144 114 201 203 39 59 95
185 90 200 -2 5 -15 -23 -30 -63z"/>
<path d="M1876 1380 c-42 -32 -113 -80 -157 -106 -80 -48 -106 -68 -46 -38 51
26 168 103 215 141 24 20 45 33 48 30 9 -9 -43 -83 -81 -115 -21 -16 -58 -35
-84 -42 -25 -7 -70 -20 -98 -30 -29 -10 -51 -14 -48 -10 3 5 -19 -1 -48 -13
-30 -12 -54 -26 -53 -32 2 -17 96 -5 166 21 36 14 95 45 132 70 62 42 95 82
145 177 11 19 -20 2 -91 -53z"/>
<path d="M2172 1357 c-88 -173 -216 -292 -390 -363 -32 -13 -50 -24 -42 -24
28 0 160 69 220 115 87 67 164 157 215 254 45 84 46 85 41 43 -2 -23 -23 -81
-46 -128 -103 -206 -327 -362 -566 -393 -53 -6 -59 -9 -28 -10 59 -2 188 34
271 74 152 75 266 190 340 343 36 75 53 154 36 165 -5 3 -27 -31 -51 -76z"/>
<path d="M1160 1370 c0 -60 4 -66 34 -54 12 5 16 20 16 60 0 51 -1 54 -25 54
-24 0 -25 -3 -25 -60z m38 3 c-4 -66 -28 -70 -28 -4 0 39 4 51 16 51 12 0 14
-10 12 -47z"/>
<path d="M754 1383 c12 -51 84 -187 127 -238 74 -89 159 -154 274 -211 61 -29
126 -56 145 -60 22 -3 10 4 -31 19 -36 13 -104 44 -150 68 -112 59 -248 192
-302 295 -20 40 -37 77 -37 84 0 6 26 -22 58 -62 74 -93 162 -172 249 -224 80
-48 182 -90 238 -98 24 -4 11 3 -35 17 -204 64 -378 199 -505 395 -32 49 -40
53 -31 15z"/>
<path d="M1565 1100 l-50 -7 45 0 c25 -1 56 3 70 7 31 10 8 10 -65 0z"/>
<path d="M840 1093 c0 -24 82 -133 144 -191 77 -71 229 -152 336 -177 85 -19
243 -19 331 1 39 9 68 18 66 20 -2 3 -33 -2 -68 -11 -84 -19 -245 -19 -328 1
-36 9 -113 38 -170 66 -89 42 -116 62 -183 129 -84 85 -104 123 -35 67 88 -73
272 -178 309 -178 7 0 -28 20 -79 44 -116 56 -171 93 -255 175 -38 35 -68 60
-68 54z"/>
<path d="M1640 954 l-55 -13 49 5 c27 3 58 9 70 14 31 13 -1 10 -64 -6z"/>
<path d="M1468 933 c23 -2 59 -2 80 0 20 2 1 4 -43 4 -44 0 -61 -2 -37 -4z"/>
<path d="M1880 873 c-30 -14 -86 -37 -125 -50 -38 -13 -55 -21 -36 -18 18 3
72 21 120 41 120 49 119 49 86 20 -46 -41 -95 -71 -148 -91 -26 -10 -46 -20
-44 -22 10 -10 120 44 171 83 85 67 74 83 -24 37z"/>
<path d="M1365 860 c30 -8 132 -13 124 -6 -2 2 -38 6 -79 9 -44 3 -63 2 -45
-3z"/>
<path d="M1295 805 c22 -8 49 -13 60 -13 11 0 -2 6 -30 14 -63 17 -84 16 -30
-1z"/>
<path d="M1585 789 c-33 -4 -94 -6 -135 -4 -71 4 -72 4 -25 -6 51 -10 185 -3
233 11 35 11 7 10 -73 -1z"/>
</g>
</svg>
