<?xml version="1.0" standalone="no"?>
<!DOCTYPE svg PUBLIC "-//W3C//DTD SVG 20010904//EN"
 "http://www.w3.org/TR/2001/REC-SVG-20010904/DTD/svg10.dtd">
<svg version="1.0" xmlns="http://www.w3.org/2000/svg"
 width="300.000000pt" height="300.000000pt" viewBox="0 0 300.000000 300.000000"
 preserveAspectRatio="xMidYMid meet">
<metadata>
Created by potrace 1.10, written by Peter Selinger 2001-2011
</metadata>
<g transform="translate(0.000000,300.000000) scale(0.100000,-0.100000)"
fill="#000000" stroke="none">
<path d="M1470 2317 c-30 -6 -80 -10 -110 -11 -93 -2 -104 -26 -40 -88 36 -34
46 -38 91 -38 36 0 49 -4 46 -12 -2 -7 -13 -12 -23 -11 -23 2 -121 14 -149 18
-22 3 -55 -21 -55 -40 0 -6 21 -35 46 -65 57 -67 96 -152 92 -201 l-3 -37 -62
26 c-69 28 -71 31 -64 140 1 28 -4 53 -14 69 -17 25 -20 25 -84 18 -36 -4 -90
-8 -118 -7 -29 0 -53 -3 -53 -7 0 -5 18 -16 41 -26 34 -16 45 -17 73 -7 18 7
53 12 79 12 46 0 47 -1 47 -30 l0 -30 -90 0 c-89 0 -89 0 -125 36 -20 20 -39
33 -43 29 -12 -12 23 -60 62 -85 l39 -25 -54 -5 c-91 -9 -100 -27 -44 -89 87
-96 105 -226 47 -344 -37 -74 -39 -93 -14 -106 23 -12 26 -12 73 4 61 22 64
20 67 -32 1 -25 9 -57 17 -70 17 -25 12 -63 -8 -63 -16 0 -102 71 -155 128
-67 72 -126 168 -162 264 -18 48 -40 94 -50 103 -17 15 -19 15 -34 -7 -25 -35
-20 -126 9 -211 14 -39 23 -82 21 -93 -9 -34 65 -138 173 -244 106 -105 210
-168 351 -212 98 -30 308 -33 410 -5 205 55 381 200 475 391 40 81 44 87 51
62 13 -54 -71 -226 -158 -322 -217 -236 -572 -309 -873 -177 -143 63 -285 180
-357 293 -19 30 -49 89 -66 130 -28 68 -31 72 -37 48 -10 -38 19 -118 71 -195
24 -36 44 -74 44 -85 0 -47 170 -181 314 -248 124 -58 209 -75 356 -74 142 1
245 26 370 89 90 45 93 26 8 -38 -104 -77 -269 -127 -416 -127 -145 0 -326 62
-452 155 -53 39 -133 128 -171 190 -22 36 -24 38 -27 17 -8 -57 126 -210 243
-278 179 -103 350 -138 528 -110 148 24 253 69 341 147 40 35 43 49 20 84 -15
22 -14 25 8 42 13 10 59 54 103 98 90 90 170 226 181 309 6 43 4 50 -25 80
l-32 33 16 58 c16 64 19 123 7 142 -4 7 -17 16 -29 20 -21 8 -17 13 51 83 40
41 86 93 102 114 45 60 6 33 -116 -81 -103 -97 -300 -244 -470 -351 -116 -74
-273 -151 -407 -201 -104 -39 -115 -42 -147 -30 -34 12 -40 29 -9 29 33 0 322
122 424 179 147 81 604 391 697 473 l34 29 -29 -7 c-29 -7 -93 -48 -341 -218
-79 -54 -146 -96 -148 -93 -3 3 1 36 9 73 18 90 13 150 -17 217 -32 73 -90
129 -175 169 -63 29 -71 36 -67 58 2 14 0 34 -4 45 -4 11 -3 30 1 43 11 30
-12 87 -37 93 -11 3 -44 1 -74 -4z m-108 -50 c22 -9 35 -8 63 6 20 9 56 17 80
17 44 0 45 -1 45 -32 l0 -33 -93 0 c-97 0 -128 10 -148 47 -10 19 -9 20 7 13
11 -4 31 -12 46 -18z m188 -108 c0 -26 -3 -30 -22 -27 -17 2 -24 11 -26 31 -3
23 0 27 22 27 22 0 26 -4 26 -31z m-178 -34 c135 -27 252 -63 303 -95 128 -79
176 -233 119 -382 -26 -68 -33 -71 -84 -45 -38 19 -60 22 -145 21 -94 -1 -138
-10 -240 -50 -18 -7 -17 -4 6 27 61 81 73 117 74 224 0 90 -3 107 -29 163 -20
42 -47 79 -83 112 -30 28 -52 50 -50 50 3 0 61 -11 129 -25z m-252 -185 c0 -5
-14 -10 -31 -10 -17 0 -28 4 -24 10 3 6 17 10 31 10 13 0 24 -4 24 -10z m90
-16 c0 -20 -4 -25 -16 -20 -9 3 -20 6 -25 6 -5 0 -9 9 -9 20 0 15 7 20 25 20
20 0 25 -5 25 -26z m-160 -29 c97 -20 194 -48 263 -77 55 -24 55 -22 3 -133
-18 -38 -52 -91 -75 -117 -22 -25 -41 -51 -41 -57 0 -18 52 -13 145 14 48 14
90 23 93 20 5 -5 -25 -115 -32 -115 -2 0 -18 8 -37 18 -27 13 -58 17 -144 16
-93 0 -121 -4 -177 -26 l-68 -25 34 46 c44 60 57 106 57 188 -1 111 -28 173
-104 238 -27 23 -35 35 -22 31 11 -2 58 -12 105 -21z m-221 -377 c68 -131 194
-260 323 -332 287 -159 595 -114 820 120 64 67 118 155 168 273 63 151 85 108
30 -61 -40 -127 -90 -208 -185 -303 -134 -134 -302 -205 -484 -205 -124 0
-211 22 -327 80 -245 123 -425 377 -423 595 l0 60 23 -82 c12 -45 37 -111 55
-145z m1301 137 c0 -2 -16 -41 -36 -87 -39 -89 -72 -146 -95 -165 -12 -10 -14
-6 -14 22 1 23 12 46 35 71 37 42 64 100 56 120 -3 7 5 20 17 29 21 15 37 19
37 10z m-105 -94 c-66 -92 -302 -249 -516 -345 -95 -43 -112 -47 -153 -41 -25
4 -46 11 -46 16 0 5 6 9 13 9 20 0 181 67 276 115 98 49 258 153 375 243 44
34 81 60 84 58 2 -2 -13 -27 -33 -55z m-340 15 c19 -8 35 -20 35 -25 0 -14
-90 -71 -112 -71 -14 0 -18 8 -18 39 0 22 -3 46 -6 55 -5 13 1 16 30 16 20 0
52 -7 71 -14z m-135 -56 c0 -48 -4 -61 -19 -70 -11 -5 -22 -10 -25 -10 -3 0
-6 32 -6 70 0 68 1 70 25 70 24 0 25 -3 25 -60z m-70 -85 c7 -9 11 -17 9 -20
-10 -9 -215 -91 -229 -90 -11 0 -16 14 -18 58 -2 49 0 57 15 57 25 0 93 -19
121 -32 20 -10 26 -8 50 15 31 31 35 32 52 12z m451 -57 c-72 -115 -225 -208
-356 -215 l-70 -4 101 49 c104 51 213 120 299 190 28 23 53 41 58 42 4 0 -10
-28 -32 -62z m-721 -3 c0 -30 -4 -55 -9 -55 -5 0 -16 -3 -25 -6 -13 -5 -16 3
-16 49 0 55 3 60 43 66 4 0 7 -24 7 -54z m284 -221 c28 -11 17 -24 -19 -24
-34 0 -47 13 -22 23 18 8 23 8 41 1z"/>
<path d="M1665 1699 c-49 -10 -101 -19 -115 -20 -24 -2 -24 -2 -2 -6 31 -6
156 14 195 31 43 19 29 18 -78 -5z"/>
<path d="M1245 1733 c-13 -101 -52 -168 -135 -225 -25 -17 -25 -17 8 -5 65 23
139 142 143 232 4 66 -8 66 -16 -2z"/>
</g>
</svg>
